<mxfile host="Electron" modified="2023-05-01T16:28:49.032Z" agent="Mozilla/5.0 (Windows NT 10.0; Win64; x64) AppleWebKit/537.36 (KHTML, like Gecko) draw.io/21.2.1 Chrome/112.0.5615.87 Electron/24.1.2 Safari/537.36" etag="-2RwilpEbUhpX5otraOJ" version="21.2.1" type="device">
  <diagram name="Page-1" id="p4mzfar-qXaMgPlR5gQY">
    <mxGraphModel dx="1594" dy="958" grid="1" gridSize="10" guides="1" tooltips="1" connect="1" arrows="1" fold="1" page="1" pageScale="1" pageWidth="1100" pageHeight="850" math="0" shadow="0">
      <root>
        <mxCell id="0" />
        <mxCell id="1" parent="0" />
        <mxCell id="2AUbF00gCj0mI4-V4q_e-2" value="Ward" style="whiteSpace=wrap;html=1;align=center;" vertex="1" parent="1">
          <mxGeometry x="190" y="240" width="100" height="40" as="geometry" />
        </mxCell>
        <mxCell id="2AUbF00gCj0mI4-V4q_e-3" value="ID" style="ellipse;whiteSpace=wrap;html=1;align=center;fontStyle=4;" vertex="1" parent="1">
          <mxGeometry x="70" y="160" width="100" height="40" as="geometry" />
        </mxCell>
        <mxCell id="2AUbF00gCj0mI4-V4q_e-4" value="name" style="ellipse;whiteSpace=wrap;html=1;align=center;" vertex="1" parent="1">
          <mxGeometry x="20" y="220" width="100" height="40" as="geometry" />
        </mxCell>
        <mxCell id="2AUbF00gCj0mI4-V4q_e-5" value="" style="endArrow=none;html=1;rounded=0;entryX=0;entryY=0.25;entryDx=0;entryDy=0;" edge="1" parent="1" source="2AUbF00gCj0mI4-V4q_e-3" target="2AUbF00gCj0mI4-V4q_e-2">
          <mxGeometry relative="1" as="geometry">
            <mxPoint x="180" y="50" as="sourcePoint" />
            <mxPoint x="340" y="50" as="targetPoint" />
          </mxGeometry>
        </mxCell>
        <mxCell id="2AUbF00gCj0mI4-V4q_e-6" value="" style="endArrow=none;html=1;rounded=0;entryX=0;entryY=0.75;entryDx=0;entryDy=0;exitX=0.612;exitY=0.977;exitDx=0;exitDy=0;exitPerimeter=0;" edge="1" parent="1" source="2AUbF00gCj0mI4-V4q_e-4" target="2AUbF00gCj0mI4-V4q_e-2">
          <mxGeometry relative="1" as="geometry">
            <mxPoint x="107" y="60" as="sourcePoint" />
            <mxPoint x="120" y="100" as="targetPoint" />
          </mxGeometry>
        </mxCell>
        <mxCell id="2AUbF00gCj0mI4-V4q_e-7" value="Consult" style="whiteSpace=wrap;html=1;align=center;" vertex="1" parent="1">
          <mxGeometry x="410" y="70" width="100" height="40" as="geometry" />
        </mxCell>
        <mxCell id="2AUbF00gCj0mI4-V4q_e-8" value="ID" style="ellipse;whiteSpace=wrap;html=1;align=center;fontStyle=4;" vertex="1" parent="1">
          <mxGeometry x="450" y="10" width="100" height="40" as="geometry" />
        </mxCell>
        <mxCell id="2AUbF00gCj0mI4-V4q_e-9" value="name" style="ellipse;whiteSpace=wrap;html=1;align=center;" vertex="1" parent="1">
          <mxGeometry x="250" y="10" width="100" height="40" as="geometry" />
        </mxCell>
        <mxCell id="2AUbF00gCj0mI4-V4q_e-10" value="" style="endArrow=none;html=1;rounded=0;entryX=0;entryY=0;entryDx=0;entryDy=0;exitX=0.5;exitY=1;exitDx=0;exitDy=0;" edge="1" parent="1" source="2AUbF00gCj0mI4-V4q_e-9" target="2AUbF00gCj0mI4-V4q_e-7">
          <mxGeometry relative="1" as="geometry">
            <mxPoint x="136" y="137" as="sourcePoint" />
            <mxPoint x="200" y="180" as="targetPoint" />
          </mxGeometry>
        </mxCell>
        <mxCell id="2AUbF00gCj0mI4-V4q_e-11" value="" style="endArrow=none;html=1;rounded=0;entryX=0.5;entryY=0;entryDx=0;entryDy=0;" edge="1" parent="1" source="2AUbF00gCj0mI4-V4q_e-8" target="2AUbF00gCj0mI4-V4q_e-7">
          <mxGeometry relative="1" as="geometry">
            <mxPoint x="440" y="60" as="sourcePoint" />
            <mxPoint x="480" y="90" as="targetPoint" />
          </mxGeometry>
        </mxCell>
        <mxCell id="2AUbF00gCj0mI4-V4q_e-12" value="Patient" style="whiteSpace=wrap;html=1;align=center;" vertex="1" parent="1">
          <mxGeometry x="810" y="220" width="100" height="40" as="geometry" />
        </mxCell>
        <mxCell id="2AUbF00gCj0mI4-V4q_e-15" value="ID" style="ellipse;whiteSpace=wrap;html=1;align=center;fontStyle=4;" vertex="1" parent="1">
          <mxGeometry x="960" y="130" width="100" height="40" as="geometry" />
        </mxCell>
        <mxCell id="2AUbF00gCj0mI4-V4q_e-16" value="name" style="ellipse;whiteSpace=wrap;html=1;align=center;" vertex="1" parent="1">
          <mxGeometry x="990" y="190" width="100" height="40" as="geometry" />
        </mxCell>
        <mxCell id="2AUbF00gCj0mI4-V4q_e-17" value="DBO" style="ellipse;whiteSpace=wrap;html=1;align=center;" vertex="1" parent="1">
          <mxGeometry x="970" y="260" width="100" height="40" as="geometry" />
        </mxCell>
        <mxCell id="2AUbF00gCj0mI4-V4q_e-18" value="" style="endArrow=none;html=1;rounded=0;entryX=0.5;entryY=0;entryDx=0;entryDy=0;exitX=0;exitY=1;exitDx=0;exitDy=0;" edge="1" parent="1" source="2AUbF00gCj0mI4-V4q_e-15" target="2AUbF00gCj0mI4-V4q_e-12">
          <mxGeometry relative="1" as="geometry">
            <mxPoint x="535" y="54" as="sourcePoint" />
            <mxPoint x="530" y="90" as="targetPoint" />
          </mxGeometry>
        </mxCell>
        <mxCell id="2AUbF00gCj0mI4-V4q_e-19" value="" style="endArrow=none;html=1;rounded=0;exitX=0;exitY=0.5;exitDx=0;exitDy=0;entryX=1;entryY=0.25;entryDx=0;entryDy=0;" edge="1" parent="1" source="2AUbF00gCj0mI4-V4q_e-16" target="2AUbF00gCj0mI4-V4q_e-12">
          <mxGeometry relative="1" as="geometry">
            <mxPoint x="545" y="64" as="sourcePoint" />
            <mxPoint x="940" y="100" as="targetPoint" />
          </mxGeometry>
        </mxCell>
        <mxCell id="2AUbF00gCj0mI4-V4q_e-20" value="" style="endArrow=none;html=1;rounded=0;entryX=1;entryY=1;entryDx=0;entryDy=0;exitX=0;exitY=0.5;exitDx=0;exitDy=0;" edge="1" parent="1" source="2AUbF00gCj0mI4-V4q_e-17" target="2AUbF00gCj0mI4-V4q_e-12">
          <mxGeometry relative="1" as="geometry">
            <mxPoint x="555" y="74" as="sourcePoint" />
            <mxPoint x="550" y="110" as="targetPoint" />
          </mxGeometry>
        </mxCell>
        <mxCell id="2AUbF00gCj0mI4-V4q_e-22" value="Nurse" style="whiteSpace=wrap;html=1;align=center;" vertex="1" parent="1">
          <mxGeometry x="260" y="530" width="100" height="40" as="geometry" />
        </mxCell>
        <mxCell id="2AUbF00gCj0mI4-V4q_e-23" value="number" style="ellipse;whiteSpace=wrap;html=1;align=center;" vertex="1" parent="1">
          <mxGeometry x="370" y="660" width="100" height="40" as="geometry" />
        </mxCell>
        <mxCell id="2AUbF00gCj0mI4-V4q_e-24" value="name" style="ellipse;whiteSpace=wrap;html=1;align=center;" vertex="1" parent="1">
          <mxGeometry x="100" y="560" width="100" height="40" as="geometry" />
        </mxCell>
        <mxCell id="2AUbF00gCj0mI4-V4q_e-25" value="address" style="ellipse;whiteSpace=wrap;html=1;align=center;" vertex="1" parent="1">
          <mxGeometry x="220" y="610" width="100" height="40" as="geometry" />
        </mxCell>
        <mxCell id="2AUbF00gCj0mI4-V4q_e-26" value="City" style="ellipse;whiteSpace=wrap;html=1;align=center;" vertex="1" parent="1">
          <mxGeometry x="110" y="670" width="100" height="40" as="geometry" />
        </mxCell>
        <mxCell id="2AUbF00gCj0mI4-V4q_e-27" value="State" style="ellipse;whiteSpace=wrap;html=1;align=center;" vertex="1" parent="1">
          <mxGeometry x="220" y="680" width="100" height="40" as="geometry" />
        </mxCell>
        <mxCell id="2AUbF00gCj0mI4-V4q_e-28" value="" style="endArrow=none;html=1;rounded=0;entryX=0;entryY=0.5;entryDx=0;entryDy=0;exitX=1;exitY=0.5;exitDx=0;exitDy=0;" edge="1" parent="1" source="2AUbF00gCj0mI4-V4q_e-24" target="2AUbF00gCj0mI4-V4q_e-22">
          <mxGeometry relative="1" as="geometry">
            <mxPoint x="101" y="259" as="sourcePoint" />
            <mxPoint x="230" y="290" as="targetPoint" />
          </mxGeometry>
        </mxCell>
        <mxCell id="2AUbF00gCj0mI4-V4q_e-29" value="" style="endArrow=none;html=1;rounded=0;entryX=0.374;entryY=1.031;entryDx=0;entryDy=0;exitX=0;exitY=0.5;exitDx=0;exitDy=0;entryPerimeter=0;" edge="1" parent="1" source="2AUbF00gCj0mI4-V4q_e-23" target="2AUbF00gCj0mI4-V4q_e-22">
          <mxGeometry relative="1" as="geometry">
            <mxPoint x="111" y="269" as="sourcePoint" />
            <mxPoint x="240" y="300" as="targetPoint" />
          </mxGeometry>
        </mxCell>
        <mxCell id="2AUbF00gCj0mI4-V4q_e-30" value="" style="endArrow=none;html=1;rounded=0;entryX=0.25;entryY=1;entryDx=0;entryDy=0;exitX=0.5;exitY=0;exitDx=0;exitDy=0;" edge="1" parent="1" source="2AUbF00gCj0mI4-V4q_e-25" target="2AUbF00gCj0mI4-V4q_e-22">
          <mxGeometry relative="1" as="geometry">
            <mxPoint x="121" y="279" as="sourcePoint" />
            <mxPoint x="250" y="310" as="targetPoint" />
          </mxGeometry>
        </mxCell>
        <mxCell id="2AUbF00gCj0mI4-V4q_e-31" value="" style="endArrow=none;html=1;rounded=0;entryX=0.5;entryY=0;entryDx=0;entryDy=0;exitX=0.5;exitY=1;exitDx=0;exitDy=0;" edge="1" parent="1" source="2AUbF00gCj0mI4-V4q_e-25" target="2AUbF00gCj0mI4-V4q_e-27">
          <mxGeometry relative="1" as="geometry">
            <mxPoint x="350" y="510" as="sourcePoint" />
            <mxPoint x="370" y="480" as="targetPoint" />
          </mxGeometry>
        </mxCell>
        <mxCell id="2AUbF00gCj0mI4-V4q_e-32" value="" style="endArrow=none;html=1;rounded=0;entryX=1;entryY=0;entryDx=0;entryDy=0;exitX=0;exitY=1;exitDx=0;exitDy=0;" edge="1" parent="1" source="2AUbF00gCj0mI4-V4q_e-25" target="2AUbF00gCj0mI4-V4q_e-26">
          <mxGeometry relative="1" as="geometry">
            <mxPoint x="350" y="550" as="sourcePoint" />
            <mxPoint x="350" y="580" as="targetPoint" />
          </mxGeometry>
        </mxCell>
        <mxCell id="2AUbF00gCj0mI4-V4q_e-34" value="Drag" style="whiteSpace=wrap;html=1;align=center;" vertex="1" parent="1">
          <mxGeometry x="740" y="470" width="100" height="40" as="geometry" />
        </mxCell>
        <mxCell id="2AUbF00gCj0mI4-V4q_e-35" value="Code" style="ellipse;whiteSpace=wrap;html=1;align=center;fontStyle=4;" vertex="1" parent="1">
          <mxGeometry x="950" y="440" width="100" height="40" as="geometry" />
        </mxCell>
        <mxCell id="2AUbF00gCj0mI4-V4q_e-36" value="Brand" style="ellipse;shape=doubleEllipse;margin=3;whiteSpace=wrap;html=1;align=center;" vertex="1" parent="1">
          <mxGeometry x="880" y="540" width="100" height="40" as="geometry" />
        </mxCell>
        <mxCell id="2AUbF00gCj0mI4-V4q_e-37" value="" style="endArrow=none;html=1;rounded=0;entryX=1;entryY=0.75;entryDx=0;entryDy=0;exitX=0;exitY=0.5;exitDx=0;exitDy=0;" edge="1" parent="1" source="2AUbF00gCj0mI4-V4q_e-35" target="2AUbF00gCj0mI4-V4q_e-34">
          <mxGeometry relative="1" as="geometry">
            <mxPoint x="520" y="630" as="sourcePoint" />
            <mxPoint x="427" y="481" as="targetPoint" />
          </mxGeometry>
        </mxCell>
        <mxCell id="2AUbF00gCj0mI4-V4q_e-38" value="" style="endArrow=none;html=1;rounded=0;entryX=1;entryY=1;entryDx=0;entryDy=0;exitX=0.5;exitY=0;exitDx=0;exitDy=0;" edge="1" parent="1" source="2AUbF00gCj0mI4-V4q_e-36" target="2AUbF00gCj0mI4-V4q_e-34">
          <mxGeometry relative="1" as="geometry">
            <mxPoint x="890" y="400" as="sourcePoint" />
            <mxPoint x="840" y="370" as="targetPoint" />
          </mxGeometry>
        </mxCell>
        <mxCell id="2AUbF00gCj0mI4-V4q_e-39" value="Has" style="shape=rhombus;perimeter=rhombusPerimeter;whiteSpace=wrap;html=1;align=center;" vertex="1" parent="1">
          <mxGeometry x="280" y="140" width="120" height="60" as="geometry" />
        </mxCell>
        <mxCell id="2AUbF00gCj0mI4-V4q_e-40" value="" style="endArrow=none;html=1;rounded=0;exitX=0;exitY=1;exitDx=0;exitDy=0;entryX=1;entryY=0;entryDx=0;entryDy=0;" edge="1" parent="1" source="2AUbF00gCj0mI4-V4q_e-7" target="2AUbF00gCj0mI4-V4q_e-39">
          <mxGeometry relative="1" as="geometry">
            <mxPoint x="450" y="270" as="sourcePoint" />
            <mxPoint x="610" y="270" as="targetPoint" />
          </mxGeometry>
        </mxCell>
        <mxCell id="2AUbF00gCj0mI4-V4q_e-41" value="1" style="resizable=0;html=1;whiteSpace=wrap;align=right;verticalAlign=bottom;" connectable="0" vertex="1" parent="2AUbF00gCj0mI4-V4q_e-40">
          <mxGeometry x="1" relative="1" as="geometry" />
        </mxCell>
        <mxCell id="2AUbF00gCj0mI4-V4q_e-42" value="" style="shape=link;html=1;rounded=0;exitX=0.75;exitY=0;exitDx=0;exitDy=0;entryX=0;entryY=1;entryDx=0;entryDy=0;" edge="1" parent="1" source="2AUbF00gCj0mI4-V4q_e-2" target="2AUbF00gCj0mI4-V4q_e-39">
          <mxGeometry relative="1" as="geometry">
            <mxPoint x="450" y="270" as="sourcePoint" />
            <mxPoint x="610" y="270" as="targetPoint" />
          </mxGeometry>
        </mxCell>
        <mxCell id="2AUbF00gCj0mI4-V4q_e-43" value="N" style="resizable=0;html=1;whiteSpace=wrap;align=right;verticalAlign=bottom;" connectable="0" vertex="1" parent="2AUbF00gCj0mI4-V4q_e-42">
          <mxGeometry x="1" relative="1" as="geometry">
            <mxPoint x="-20" y="5" as="offset" />
          </mxGeometry>
        </mxCell>
        <mxCell id="2AUbF00gCj0mI4-V4q_e-44" value="Exam" style="shape=rhombus;perimeter=rhombusPerimeter;whiteSpace=wrap;html=1;align=center;" vertex="1" parent="1">
          <mxGeometry x="620" y="80" width="120" height="60" as="geometry" />
        </mxCell>
        <mxCell id="2AUbF00gCj0mI4-V4q_e-45" value="Assigned" style="shape=rhombus;perimeter=rhombusPerimeter;whiteSpace=wrap;html=1;align=center;" vertex="1" parent="1">
          <mxGeometry x="580" y="140" width="120" height="60" as="geometry" />
        </mxCell>
        <mxCell id="2AUbF00gCj0mI4-V4q_e-46" value="Host" style="shape=rhombus;perimeter=rhombusPerimeter;whiteSpace=wrap;html=1;align=center;" vertex="1" parent="1">
          <mxGeometry x="490" y="250" width="120" height="60" as="geometry" />
        </mxCell>
        <mxCell id="2AUbF00gCj0mI4-V4q_e-47" value="" style="endArrow=none;html=1;rounded=0;exitX=1;exitY=0.75;exitDx=0;exitDy=0;entryX=0;entryY=0.5;entryDx=0;entryDy=0;" edge="1" parent="1" source="2AUbF00gCj0mI4-V4q_e-2" target="2AUbF00gCj0mI4-V4q_e-46">
          <mxGeometry relative="1" as="geometry">
            <mxPoint x="450" y="270" as="sourcePoint" />
            <mxPoint x="610" y="270" as="targetPoint" />
          </mxGeometry>
        </mxCell>
        <mxCell id="2AUbF00gCj0mI4-V4q_e-48" value="1" style="resizable=0;html=1;whiteSpace=wrap;align=right;verticalAlign=bottom;" connectable="0" vertex="1" parent="2AUbF00gCj0mI4-V4q_e-47">
          <mxGeometry x="1" relative="1" as="geometry" />
        </mxCell>
        <mxCell id="2AUbF00gCj0mI4-V4q_e-49" value="" style="shape=link;html=1;rounded=0;entryX=0;entryY=1;entryDx=0;entryDy=0;exitX=1;exitY=0.5;exitDx=0;exitDy=0;" edge="1" parent="1" source="2AUbF00gCj0mI4-V4q_e-46" target="2AUbF00gCj0mI4-V4q_e-12">
          <mxGeometry relative="1" as="geometry">
            <mxPoint x="450" y="270" as="sourcePoint" />
            <mxPoint x="610" y="270" as="targetPoint" />
          </mxGeometry>
        </mxCell>
        <mxCell id="2AUbF00gCj0mI4-V4q_e-50" value="N" style="resizable=0;html=1;whiteSpace=wrap;align=right;verticalAlign=bottom;" connectable="0" vertex="1" parent="2AUbF00gCj0mI4-V4q_e-49">
          <mxGeometry x="1" relative="1" as="geometry">
            <mxPoint x="-170" y="40" as="offset" />
          </mxGeometry>
        </mxCell>
        <mxCell id="2AUbF00gCj0mI4-V4q_e-51" value="" style="endArrow=none;html=1;rounded=0;exitX=0.5;exitY=1;exitDx=0;exitDy=0;entryX=0;entryY=0.5;entryDx=0;entryDy=0;" edge="1" parent="1" source="2AUbF00gCj0mI4-V4q_e-7" target="2AUbF00gCj0mI4-V4q_e-45">
          <mxGeometry relative="1" as="geometry">
            <mxPoint x="390" y="150" as="sourcePoint" />
            <mxPoint x="600" y="180" as="targetPoint" />
          </mxGeometry>
        </mxCell>
        <mxCell id="2AUbF00gCj0mI4-V4q_e-52" value="N" style="resizable=0;html=1;whiteSpace=wrap;align=right;verticalAlign=bottom;" connectable="0" vertex="1" parent="2AUbF00gCj0mI4-V4q_e-51">
          <mxGeometry x="1" relative="1" as="geometry">
            <mxPoint y="-10" as="offset" />
          </mxGeometry>
        </mxCell>
        <mxCell id="2AUbF00gCj0mI4-V4q_e-55" value="" style="endArrow=none;html=1;rounded=0;entryX=1;entryY=0.5;entryDx=0;entryDy=0;exitX=0;exitY=0.5;exitDx=0;exitDy=0;" edge="1" parent="1" source="2AUbF00gCj0mI4-V4q_e-12" target="2AUbF00gCj0mI4-V4q_e-45">
          <mxGeometry relative="1" as="geometry">
            <mxPoint x="500" y="190" as="sourcePoint" />
            <mxPoint x="660" y="190" as="targetPoint" />
          </mxGeometry>
        </mxCell>
        <mxCell id="2AUbF00gCj0mI4-V4q_e-56" value="1" style="resizable=0;html=1;whiteSpace=wrap;align=right;verticalAlign=bottom;" connectable="0" vertex="1" parent="2AUbF00gCj0mI4-V4q_e-55">
          <mxGeometry x="1" relative="1" as="geometry" />
        </mxCell>
        <mxCell id="2AUbF00gCj0mI4-V4q_e-57" value="" style="shape=link;html=1;rounded=0;entryX=1;entryY=0.5;entryDx=0;entryDy=0;exitX=0;exitY=0;exitDx=0;exitDy=0;" edge="1" parent="1" source="2AUbF00gCj0mI4-V4q_e-12" target="2AUbF00gCj0mI4-V4q_e-44">
          <mxGeometry relative="1" as="geometry">
            <mxPoint x="500" y="190" as="sourcePoint" />
            <mxPoint x="660" y="190" as="targetPoint" />
          </mxGeometry>
        </mxCell>
        <mxCell id="2AUbF00gCj0mI4-V4q_e-58" value="N" style="resizable=0;html=1;whiteSpace=wrap;align=right;verticalAlign=bottom;" connectable="0" vertex="1" parent="2AUbF00gCj0mI4-V4q_e-57">
          <mxGeometry x="1" relative="1" as="geometry" />
        </mxCell>
        <mxCell id="2AUbF00gCj0mI4-V4q_e-60" value="" style="endArrow=none;html=1;rounded=0;entryX=0;entryY=0.5;entryDx=0;entryDy=0;exitX=1;exitY=0.5;exitDx=0;exitDy=0;" edge="1" parent="1" source="2AUbF00gCj0mI4-V4q_e-7" target="2AUbF00gCj0mI4-V4q_e-44">
          <mxGeometry relative="1" as="geometry">
            <mxPoint x="830" y="190" as="sourcePoint" />
            <mxPoint x="700" y="160" as="targetPoint" />
          </mxGeometry>
        </mxCell>
        <mxCell id="2AUbF00gCj0mI4-V4q_e-61" value="1" style="resizable=0;html=1;whiteSpace=wrap;align=right;verticalAlign=bottom;" connectable="0" vertex="1" parent="2AUbF00gCj0mI4-V4q_e-60">
          <mxGeometry x="1" relative="1" as="geometry" />
        </mxCell>
        <mxCell id="2AUbF00gCj0mI4-V4q_e-65" value="Work" style="shape=rhombus;perimeter=rhombusPerimeter;whiteSpace=wrap;html=1;align=center;" vertex="1" parent="1">
          <mxGeometry x="60" y="395" width="120" height="60" as="geometry" />
        </mxCell>
        <mxCell id="2AUbF00gCj0mI4-V4q_e-66" value="Manage" style="shape=rhombus;perimeter=rhombusPerimeter;whiteSpace=wrap;html=1;align=center;" vertex="1" parent="1">
          <mxGeometry x="300" y="395" width="120" height="60" as="geometry" />
        </mxCell>
        <mxCell id="2AUbF00gCj0mI4-V4q_e-67" value="" style="endArrow=none;html=1;rounded=0;exitX=0;exitY=1;exitDx=0;exitDy=0;entryX=0.5;entryY=0;entryDx=0;entryDy=0;" edge="1" parent="1" source="2AUbF00gCj0mI4-V4q_e-2" target="2AUbF00gCj0mI4-V4q_e-65">
          <mxGeometry relative="1" as="geometry">
            <mxPoint x="500" y="350" as="sourcePoint" />
            <mxPoint x="660" y="350" as="targetPoint" />
          </mxGeometry>
        </mxCell>
        <mxCell id="2AUbF00gCj0mI4-V4q_e-68" value="1" style="resizable=0;html=1;whiteSpace=wrap;align=right;verticalAlign=bottom;" connectable="0" vertex="1" parent="2AUbF00gCj0mI4-V4q_e-67">
          <mxGeometry x="1" relative="1" as="geometry" />
        </mxCell>
        <mxCell id="2AUbF00gCj0mI4-V4q_e-69" value="" style="shape=link;html=1;rounded=0;exitX=0.5;exitY=1;exitDx=0;exitDy=0;entryX=0;entryY=0;entryDx=0;entryDy=0;" edge="1" parent="1" source="2AUbF00gCj0mI4-V4q_e-65" target="2AUbF00gCj0mI4-V4q_e-22">
          <mxGeometry relative="1" as="geometry">
            <mxPoint x="500" y="350" as="sourcePoint" />
            <mxPoint x="660" y="350" as="targetPoint" />
          </mxGeometry>
        </mxCell>
        <mxCell id="2AUbF00gCj0mI4-V4q_e-70" value="N" style="resizable=0;html=1;whiteSpace=wrap;align=right;verticalAlign=bottom;" connectable="0" vertex="1" parent="2AUbF00gCj0mI4-V4q_e-69">
          <mxGeometry x="1" relative="1" as="geometry">
            <mxPoint x="-150" y="-60" as="offset" />
          </mxGeometry>
        </mxCell>
        <mxCell id="2AUbF00gCj0mI4-V4q_e-71" value="" style="endArrow=none;html=1;rounded=0;exitX=0.5;exitY=1;exitDx=0;exitDy=0;entryX=0.5;entryY=0;entryDx=0;entryDy=0;" edge="1" parent="1" source="2AUbF00gCj0mI4-V4q_e-2" target="2AUbF00gCj0mI4-V4q_e-66">
          <mxGeometry relative="1" as="geometry">
            <mxPoint x="500" y="350" as="sourcePoint" />
            <mxPoint x="350" y="390" as="targetPoint" />
          </mxGeometry>
        </mxCell>
        <mxCell id="2AUbF00gCj0mI4-V4q_e-72" value="1" style="resizable=0;html=1;whiteSpace=wrap;align=right;verticalAlign=bottom;" connectable="0" vertex="1" parent="2AUbF00gCj0mI4-V4q_e-71">
          <mxGeometry x="1" relative="1" as="geometry">
            <mxPoint x="-20" as="offset" />
          </mxGeometry>
        </mxCell>
        <mxCell id="2AUbF00gCj0mI4-V4q_e-73" value="" style="shape=link;html=1;rounded=0;exitX=0.5;exitY=0;exitDx=0;exitDy=0;entryX=0.5;entryY=1;entryDx=0;entryDy=0;" edge="1" parent="1" source="2AUbF00gCj0mI4-V4q_e-22" target="2AUbF00gCj0mI4-V4q_e-66">
          <mxGeometry relative="1" as="geometry">
            <mxPoint x="500" y="350" as="sourcePoint" />
            <mxPoint x="660" y="350" as="targetPoint" />
          </mxGeometry>
        </mxCell>
        <mxCell id="2AUbF00gCj0mI4-V4q_e-74" value="1" style="resizable=0;html=1;whiteSpace=wrap;align=right;verticalAlign=bottom;" connectable="0" vertex="1" parent="2AUbF00gCj0mI4-V4q_e-73">
          <mxGeometry x="1" relative="1" as="geometry">
            <mxPoint x="-30" y="16" as="offset" />
          </mxGeometry>
        </mxCell>
        <mxCell id="2AUbF00gCj0mI4-V4q_e-75" value="Write" style="shape=rhombus;perimeter=rhombusPerimeter;whiteSpace=wrap;html=1;align=center;" vertex="1" parent="1">
          <mxGeometry x="490" y="460" width="120" height="60" as="geometry" />
        </mxCell>
        <mxCell id="2AUbF00gCj0mI4-V4q_e-76" value="" style="endArrow=none;html=1;rounded=0;exitX=1;exitY=0.5;exitDx=0;exitDy=0;entryX=0;entryY=0.5;entryDx=0;entryDy=0;" edge="1" parent="1" source="2AUbF00gCj0mI4-V4q_e-22" target="2AUbF00gCj0mI4-V4q_e-75">
          <mxGeometry relative="1" as="geometry">
            <mxPoint x="500" y="350" as="sourcePoint" />
            <mxPoint x="660" y="350" as="targetPoint" />
          </mxGeometry>
        </mxCell>
        <mxCell id="2AUbF00gCj0mI4-V4q_e-77" value="1" style="resizable=0;html=1;whiteSpace=wrap;align=right;verticalAlign=bottom;" connectable="0" vertex="1" parent="2AUbF00gCj0mI4-V4q_e-76">
          <mxGeometry x="1" relative="1" as="geometry" />
        </mxCell>
        <mxCell id="2AUbF00gCj0mI4-V4q_e-78" value="" style="shape=link;html=1;rounded=0;exitX=0;exitY=0.5;exitDx=0;exitDy=0;entryX=1;entryY=0.5;entryDx=0;entryDy=0;" edge="1" parent="1" source="2AUbF00gCj0mI4-V4q_e-34" target="2AUbF00gCj0mI4-V4q_e-75">
          <mxGeometry relative="1" as="geometry">
            <mxPoint x="500" y="350" as="sourcePoint" />
            <mxPoint x="650" y="550" as="targetPoint" />
          </mxGeometry>
        </mxCell>
        <mxCell id="2AUbF00gCj0mI4-V4q_e-79" value="N" style="resizable=0;html=1;whiteSpace=wrap;align=right;verticalAlign=bottom;" connectable="0" vertex="1" parent="2AUbF00gCj0mI4-V4q_e-78">
          <mxGeometry x="1" relative="1" as="geometry" />
        </mxCell>
        <mxCell id="2AUbF00gCj0mI4-V4q_e-80" value="" style="endArrow=none;html=1;rounded=0;exitX=0.5;exitY=1;exitDx=0;exitDy=0;entryX=0.5;entryY=0;entryDx=0;entryDy=0;" edge="1" parent="1" source="2AUbF00gCj0mI4-V4q_e-75" target="2AUbF00gCj0mI4-V4q_e-81">
          <mxGeometry relative="1" as="geometry">
            <mxPoint x="500" y="350" as="sourcePoint" />
            <mxPoint x="570" y="550" as="targetPoint" />
          </mxGeometry>
        </mxCell>
        <mxCell id="2AUbF00gCj0mI4-V4q_e-81" value="Dose" style="ellipse;whiteSpace=wrap;html=1;align=center;" vertex="1" parent="1">
          <mxGeometry x="440" y="550" width="100" height="40" as="geometry" />
        </mxCell>
        <mxCell id="2AUbF00gCj0mI4-V4q_e-83" value="" style="endArrow=none;html=1;rounded=0;entryX=0.5;entryY=1;entryDx=0;entryDy=0;exitX=0.394;exitY=0.062;exitDx=0;exitDy=0;exitPerimeter=0;" edge="1" parent="1" source="2AUbF00gCj0mI4-V4q_e-84" target="2AUbF00gCj0mI4-V4q_e-75">
          <mxGeometry relative="1" as="geometry">
            <mxPoint x="590" y="550" as="sourcePoint" />
            <mxPoint x="660" y="350" as="targetPoint" />
          </mxGeometry>
        </mxCell>
        <mxCell id="2AUbF00gCj0mI4-V4q_e-84" value="Date" style="ellipse;whiteSpace=wrap;html=1;align=center;" vertex="1" parent="1">
          <mxGeometry x="550" y="550" width="100" height="40" as="geometry" />
        </mxCell>
        <mxCell id="2AUbF00gCj0mI4-V4q_e-85" value="Date" style="ellipse;whiteSpace=wrap;html=1;align=center;" vertex="1" parent="1">
          <mxGeometry x="650" y="610" width="100" height="40" as="geometry" />
        </mxCell>
        <mxCell id="2AUbF00gCj0mI4-V4q_e-86" value="Date" style="ellipse;whiteSpace=wrap;html=1;align=center;" vertex="1" parent="1">
          <mxGeometry x="530" y="620" width="100" height="40" as="geometry" />
        </mxCell>
        <mxCell id="2AUbF00gCj0mI4-V4q_e-88" value="" style="endArrow=none;html=1;rounded=0;exitX=0;exitY=0;exitDx=0;exitDy=0;" edge="1" parent="1" source="2AUbF00gCj0mI4-V4q_e-85" target="2AUbF00gCj0mI4-V4q_e-84">
          <mxGeometry relative="1" as="geometry">
            <mxPoint x="675" y="626" as="sourcePoint" />
            <mxPoint x="635" y="584" as="targetPoint" />
          </mxGeometry>
        </mxCell>
        <mxCell id="2AUbF00gCj0mI4-V4q_e-89" value="" style="endArrow=none;html=1;rounded=0;entryX=0.5;entryY=1;entryDx=0;entryDy=0;exitX=0.5;exitY=0;exitDx=0;exitDy=0;" edge="1" parent="1" source="2AUbF00gCj0mI4-V4q_e-86" target="2AUbF00gCj0mI4-V4q_e-84">
          <mxGeometry relative="1" as="geometry">
            <mxPoint x="685" y="636" as="sourcePoint" />
            <mxPoint x="645" y="594" as="targetPoint" />
          </mxGeometry>
        </mxCell>
        <mxCell id="2AUbF00gCj0mI4-V4q_e-90" value="Take" style="shape=rhombus;perimeter=rhombusPerimeter;whiteSpace=wrap;html=1;align=center;" vertex="1" parent="1">
          <mxGeometry x="760" y="335" width="120" height="60" as="geometry" />
        </mxCell>
        <mxCell id="2AUbF00gCj0mI4-V4q_e-91" value="" style="endArrow=none;html=1;rounded=0;exitX=0.5;exitY=1;exitDx=0;exitDy=0;entryX=0.5;entryY=0;entryDx=0;entryDy=0;" edge="1" parent="1" source="2AUbF00gCj0mI4-V4q_e-12" target="2AUbF00gCj0mI4-V4q_e-90">
          <mxGeometry relative="1" as="geometry">
            <mxPoint x="500" y="350" as="sourcePoint" />
            <mxPoint x="660" y="350" as="targetPoint" />
          </mxGeometry>
        </mxCell>
        <mxCell id="2AUbF00gCj0mI4-V4q_e-92" value="1" style="resizable=0;html=1;whiteSpace=wrap;align=right;verticalAlign=bottom;" connectable="0" vertex="1" parent="2AUbF00gCj0mI4-V4q_e-91">
          <mxGeometry x="1" relative="1" as="geometry" />
        </mxCell>
        <mxCell id="2AUbF00gCj0mI4-V4q_e-93" value="" style="shape=link;html=1;rounded=0;exitX=0.5;exitY=0;exitDx=0;exitDy=0;entryX=0.5;entryY=1;entryDx=0;entryDy=0;" edge="1" parent="1" source="2AUbF00gCj0mI4-V4q_e-34" target="2AUbF00gCj0mI4-V4q_e-90">
          <mxGeometry relative="1" as="geometry">
            <mxPoint x="500" y="350" as="sourcePoint" />
            <mxPoint x="660" y="350" as="targetPoint" />
          </mxGeometry>
        </mxCell>
        <mxCell id="2AUbF00gCj0mI4-V4q_e-94" value="N" style="resizable=0;html=1;whiteSpace=wrap;align=right;verticalAlign=bottom;" connectable="0" vertex="1" parent="2AUbF00gCj0mI4-V4q_e-93">
          <mxGeometry x="1" relative="1" as="geometry" />
        </mxCell>
      </root>
    </mxGraphModel>
  </diagram>
</mxfile>
